<svg width="55" height="59" viewBox="0 0 55 59" fill="none" xmlns="http://www.w3.org/2000/svg">
<path d="M33.782 41.1333L32.6444 40.1556L33.782 41.1333ZM39.021 1.41492C39.3441 0.652082 40.2244 0.295584 40.9872 0.618656L53.4183 5.88342C54.1812 6.20649 54.5377 7.08679 54.2146 7.84963C53.8915 8.61246 53.0112 8.96896 52.2484 8.64589L41.1985 3.9661L36.5187 15.016C36.1957 15.7788 35.3154 16.1353 34.5525 15.8122C33.7897 15.4892 33.4332 14.6088 33.7563 13.846L39.021 1.41492ZM0.999983 57.2761C1.13877 55.7825 1.13804 55.7825 1.13738 55.7824C1.13725 55.7824 1.13665 55.7823 1.13639 55.7823C1.13586 55.7823 1.1356 55.7822 1.13559 55.7822C1.13559 55.7822 1.13663 55.7823 1.13871 55.7825C1.14287 55.7829 1.15119 55.7835 1.16359 55.7845C1.1884 55.7864 1.22951 55.7892 1.28635 55.7925C1.40004 55.799 1.57652 55.8071 1.81104 55.8116C2.28018 55.8206 2.98084 55.8155 3.87496 55.756C5.66381 55.6369 8.22213 55.3006 11.248 54.4272C17.288 52.6839 25.2205 48.7937 32.6444 40.1556L34.9196 42.111C27.0715 51.2427 18.613 55.4239 12.08 57.3096C8.81938 58.2507 6.04569 58.6182 4.07415 58.7494C3.08808 58.815 2.30145 58.8216 1.75335 58.811C1.47925 58.8058 1.26463 58.7962 1.11436 58.7876C1.03923 58.7833 0.980156 58.7792 0.937765 58.776C0.916569 58.7744 0.89954 58.773 0.886754 58.7719C0.880362 58.7714 0.875029 58.7709 0.870767 58.7705C0.868636 58.7703 0.866772 58.7702 0.865177 58.77C0.86438 58.77 0.863385 58.7699 0.862987 58.7698C0.86206 58.7697 0.8612 58.7697 0.999983 57.2761ZM32.6444 40.1556C39.9703 31.6314 41.565 22.2525 41.3199 14.9532C41.1973 11.3003 40.6131 8.18194 40.0606 5.9808C39.7846 4.88142 39.5174 4.01432 39.3215 3.42784C39.2235 3.13469 39.1435 2.91197 39.0893 2.76573C39.0622 2.69262 39.0415 2.63865 39.0283 2.60459C39.0217 2.58756 39.0169 2.57551 39.0142 2.56853C39.0128 2.56505 39.0119 2.56283 39.0115 2.56189C39.0113 2.56142 39.0113 2.56127 39.0113 2.56144C39.0114 2.56153 39.0115 2.5619 39.0115 2.56195C39.0117 2.5624 39.0119 2.56293 40.4023 1.99989C41.7926 1.43685 41.7929 1.43754 41.7932 1.43832C41.7933 1.43869 41.7937 1.43955 41.794 1.44029C41.7946 1.44176 41.7953 1.44356 41.7961 1.44569C41.7978 1.44994 41.8001 1.4555 41.8028 1.46235C41.8082 1.47604 41.8156 1.49491 41.8249 1.51884C41.8435 1.56671 41.8696 1.63487 41.9021 1.72257C41.9671 1.89795 42.0581 2.15156 42.1669 2.47728C42.3845 3.12853 42.6738 4.06928 42.9703 5.25038C43.5627 7.61021 44.187 10.9433 44.3182 14.8525C44.581 22.6774 42.8656 32.8652 34.9196 42.111L32.6444 40.1556Z" fill="black"/>
</svg>
