<svg width="167" height="175" viewBox="0 0 167 175" fill="none" xmlns="http://www.w3.org/2000/svg">
<path d="M83.5 0.948604L101.732 30.3435L101.955 30.7025L102.346 30.5429L134.374 17.4784L131.846 51.9759L131.815 52.3972L132.225 52.498L165.815 60.7542L143.493 87.1773L143.22 87.5L143.493 87.8227L165.815 114.246L132.225 122.502L131.815 122.603L131.846 123.024L134.374 157.522L102.346 144.457L101.955 144.298L101.732 144.656L83.5 174.051L65.268 144.656L65.0454 144.298L64.6543 144.457L32.6264 157.522L35.1543 123.024L35.1851 122.603L34.7749 122.502L1.18473 114.246L23.5069 87.8227L23.7795 87.5L23.5069 87.1773L1.18473 60.7542L34.7749 52.498L35.1851 52.3972L35.1543 51.9759L32.6264 17.4785L64.6543 30.5429L65.0454 30.7025L65.268 30.3435L83.5 0.948604Z" stroke="#E7CFB1"/>
</svg>
